<svg xmlns="http://www.w3.org/2000/svg" version="1.1" xmlns:xlink="http://www.w3.org/1999/xlink" xmlns:svgjs="http://svgjs.dev/svgjs" width="1500" height="1500" viewBox="0 0 1500 1500"><rect width="1500" height="1500" fill="#000000"></rect><g transform="matrix(0.6666666666666666,0,0,0.6666666666666666,250,250)"><svg viewBox="0 0 280 280" data-background-color="#000000" preserveAspectRatio="xMidYMid meet" height="1500" width="1500" xmlns="http://www.w3.org/2000/svg" xmlns:xlink="http://www.w3.org/1999/xlink"><g id="tight-bounds" transform="matrix(1,0,0,1,0,0)"><svg viewBox="0 0 280 280" height="280" width="280"><g><svg viewBox="0 0 280 280" height="280" width="280"><g><svg viewBox="0 0 280 280" height="280" width="280"><g id="textblocktransform"><svg viewBox="0 0 280 280" height="280" width="280" id="textblock"><g><svg viewBox="0 0 280 280" height="280" width="280"><g transform="matrix(1,0,0,1,90.50252531694167,109.06407832308855)"><svg viewBox="0 0 98.99494936611666 61.87184335382291" height="61.87184335382291" width="98.99494936611666"><g id="icon-0"><svg xmlns="http://www.w3.org/2000/svg" data-name="Layer 1" viewBox="0 24 128 80" x="0" y="0" height="61.87184335382291" width="98.99494936611666" class="icon-jxe-0" data-fill-palette-color="accent" id="jxe-0"></svg></g></svg></g><g id="text-0"></g><g id="text-1"></g></svg></g></svg></g></svg></g><g></g></svg></g><defs></defs><mask id="52a32ca5-2e3b-4421-8c1f-ec33c3e43d88"><g id="SvgjsG2385"><svg viewBox="0 0 280 280" height="280" width="280"><g><svg viewBox="0 0 280 280" height="280" width="280"><g><svg viewBox="0 0 280 280" height="280" width="280"><g id="SvgjsG2384"><svg viewBox="0 0 280 280" height="280" width="280" id="SvgjsSvg2383"><g><svg viewBox="0 0 280 280" height="280" width="280"><g transform="matrix(1,0,0,1,90.50252531694167,109.06407832308855)"><svg viewBox="0 0 98.99494936611666 61.87184335382291" height="61.87184335382291" width="98.99494936611666"><g id="SvgjsG2382"><svg xmlns="http://www.w3.org/2000/svg" data-name="Layer 1" viewBox="0 24 128 80" x="0" y="0" height="61.87184335382291" width="98.99494936611666" class="icon-jxe-0" data-fill-palette-color="accent" id="SvgjsSvg2381"><path d="M122 24H6A6.007 6.007 0 0 0 0 30V98A6.007 6.007 0 0 0 6 104H122A6.007 6.007 0 0 0 128 98V30A6.007 6.007 0 0 0 122 24M124 98A2 2 0 0 1 122 100H6A2 2 0 0 1 4 98V30A2 2 0 0 1 6 28H122A2 2 0 0 1 124 30Z" fill="black"></path><path d="M114 73H58A2 2 0 0 0 58 77H114A2 2 0 0 0 114 73" fill="black"></path><path d="M114 81H58A2 2 0 0 0 58 85H114A2 2 0 0 0 114 81" fill="black"></path><path d="M44 90H16A2 2 0 0 0 16 94H44A2 2 0 0 0 44 90" fill="black"></path><path d="M24.819 66.487L23.003 78.497A2 2 0 0 0 23.695 80.326L27.695 83.684A2 2 0 0 0 30.235 83.709L34.235 80.487A2 2 0 0 0 34.961 78.648L33.247 66.59A15 15 0 0 1 29.287 67.15L30.84 78.085 29.007 79.563 27.126 77.984 28.767 67.128A15 15 0 0 1 24.819 66.488" fill="black"></path><path d="M21.237 65.151H21.78A15.1 15.1 0 0 1 17.635 61.654C12.46 63.142 8.981 67.839 8.981 73.908V83.151A2 2 0 1 0 12.981 83.151V73.908C12.981 68.752 16.376 65.151 21.237 65.151" fill="black"></path><path d="M40.72 61.777A15.1 15.1 0 0 1 36.682 65.15H36.724C41.585 65.151 44.981 68.752 44.981 73.908V83.151A2 2 0 0 0 48.981 83.151V73.908C48.981 67.994 45.676 63.386 40.72 61.777" fill="black"></path><path d="M28.98 63.151A11 11 0 1 0 17.98 52.151 11 11 0 0 0 28.98 63.151M28.98 45.151A7 7 0 1 1 21.98 52.151 7.01 7.01 0 0 1 28.98 45.151" fill="black"></path><path d="M114 42H58A2 2 0 0 0 56 44V64A2 2 0 0 0 58 66H114A2 2 0 0 0 116 64V44A2 2 0 0 0 114 42M112 62H60V46H112Z" fill="black"></path><path d="M64 58A2 2 0 0 0 66 60H70A2 2 0 0 0 70 56V52A2 2 0 0 0 70 48H66A2 2 0 0 0 66 52V56A2 2 0 0 0 64 58" fill="black"></path></svg></g></svg></g><g id="SvgjsG2380"><path d="M32.665 106.539v0c-0.694 2.097-1.648 3.723-2.862 4.878-1.212 1.15-2.522 1.491-3.933 1.025v0c-0.792-0.262-1.353-0.711-1.683-1.347-0.336-0.637-0.378-1.337-0.126-2.098v0c0.163-0.493 0.428-0.852 0.793-1.077 0.359-0.227 0.592-0.323 0.698-0.288v0c0.087 0.029 0.22 0.246 0.397 0.65 0.184 0.407 0.588 0.714 1.212 0.921v0c0.767 0.254 1.521 0.102 2.259-0.457 0.743-0.55 1.358-1.562 1.846-3.034v0c0.424-1.279 0.476-2.369 0.159-3.271-0.322-0.91-0.985-1.531-1.99-1.863v0c-0.817-0.271-1.539-0.215-2.163 0.166-0.625 0.382-1.212 0.942-1.762 1.681-0.543 0.741-1.108 1.537-1.694 2.388-0.578 0.847-1.213 1.624-1.904 2.33-0.687 0.714-1.48 1.217-2.378 1.508-0.893 0.293-1.939 0.241-3.137-0.156v0c-1.229-0.407-2.115-1.109-2.658-2.106-0.549-0.999-0.831-2.134-0.845-3.406-0.015-1.272 0.172-2.495 0.56-3.667v0c0.333-1.005 0.791-1.909 1.376-2.712 0.585-0.803 1.258-1.404 2.019-1.803 0.766-0.39 1.583-0.442 2.451-0.155v0c0.68 0.225 1.223 0.644 1.63 1.256 0.398 0.617 0.471 1.305 0.219 2.067v0c-0.163 0.493-0.428 0.852-0.793 1.077-0.359 0.227-0.595 0.322-0.707 0.285v0c-0.05-0.017-0.116-0.153-0.197-0.408-0.084-0.249-0.224-0.514-0.423-0.794-0.194-0.272-0.497-0.476-0.908-0.612v0c-0.803-0.21-1.512-0.023-2.129 0.562-0.614 0.579-1.066 1.305-1.355 2.179v0c-0.314 0.948-0.376 1.908-0.184 2.878 0.191 0.97 0.723 1.6 1.597 1.889v0c0.786 0.26 1.453 0.294 2.002 0.102 0.55-0.199 1.106-0.621 1.665-1.266 0.56-0.645 1.229-1.504 2.006-2.576v0c0.777-1.072 1.523-1.995 2.236-2.77 0.707-0.777 1.478-1.307 2.313-1.591 0.833-0.278 1.82-0.228 2.963 0.15v0c1.142 0.378 2.055 1.04 2.738 1.986 0.682 0.953 1.088 2.077 1.22 3.374 0.125 1.295-0.051 2.663-0.528 4.104z" fill="white"></path><path d="M53.774 69.934v0c-1.164 1.305-2.469 2.017-3.914 2.136-1.446 0.11-2.694-0.303-3.744-1.239v0c-1.089-0.971-1.691-2.02-1.806-3.144-0.115-1.115 0.094-2.272 0.626-3.471 0.532-1.199 1.235-2.396 2.107-3.591 0.877-1.2 1.751-2.353 2.624-3.459v0l-2.53-2.258c-1.005-0.897-2.018-1.347-3.038-1.349-1.015-0.007-2.057 0.587-3.124 1.783v0c-0.538 0.603-0.846 1.338-0.922 2.204-0.086 0.866 0.237 1.625 0.967 2.277v0c0.343 0.306 0.707 0.476 1.091 0.51 0.389 0.038 0.723 0.033 1.004-0.015 0.281-0.058 0.443-0.067 0.488-0.028v0c0.083 0.074 0.128 0.335 0.135 0.782 0.007 0.447-0.18 0.883-0.561 1.309v0c-0.591 0.662-1.298 0.956-2.121 0.882-0.814-0.075-1.521-0.379-2.119-0.912v0c-0.814-0.726-1.231-1.552-1.252-2.478-0.024-0.92 0.212-1.872 0.711-2.855 0.489-0.982 1.096-1.88 1.822-2.694v0c0.858-0.961 1.809-1.791 2.855-2.488 1.049-0.702 2.168-1.052 3.354-1.05 1.187 0.002 2.445 0.596 3.775 1.783v0l7.474 6.669c0.233 0.173 0.537 0.351 0.91 0.535 0.378 0.179 0.787 0.244 1.226 0.195 0.444-0.044 0.857-0.279 1.238-0.706v0c0.136-0.152 0.268-0.246 0.396-0.281 0.133-0.04 0.317 0.045 0.552 0.255v0c0.191 0.171 0.245 0.412 0.16 0.724-0.08 0.307-0.223 0.62-0.428 0.939-0.21 0.315-0.401 0.567-0.571 0.759v0c-0.705 0.79-1.563 1.292-2.575 1.508-1.012 0.207-1.974 0.001-2.884-0.618v0c0.438 1.237 0.46 2.516 0.065 3.837-0.395 1.321-1.058 2.504-1.991 3.549zM52.958 67.369v0c0.652-0.731 1.068-1.562 1.247-2.494 0.18-0.932 0.12-1.867-0.18-2.804-0.296-0.942-0.829-1.757-1.599-2.444v0l-1.824-1.628c-1.818 2.333-2.867 4.22-3.148 5.661-0.286 1.436 0.201 2.717 1.461 3.841v0c1.457 1.3 2.804 1.256 4.043-0.132z" fill="white"></path><path d="M85.265 43.702v0c-0.185 0.069-0.371 0.041-0.558-0.084-0.19-0.132-0.32-0.29-0.39-0.475v0c-0.122-0.418-0.104-0.677 0.055-0.779 0.156-0.108 0.357-0.208 0.603-0.301v0c0.751-0.282 1.22-0.603 1.408-0.962 0.18-0.363 0.211-0.764 0.094-1.204-0.125-0.445-0.273-0.894-0.444-1.35v0l-3.469-9.219c-0.181-0.48-0.368-0.922-0.562-1.326-0.2-0.402-0.48-0.68-0.84-0.832-0.368-0.157-0.927-0.094-1.678 0.189v0c-0.24 0.09-0.473 0.143-0.699 0.157-0.228 0.009-0.419-0.19-0.572-0.596v0c-0.15-0.4-0.025-0.721 0.375-0.962v0c1.165-0.656 2.042-1.2 2.63-1.633 0.58-0.436 1.014-0.785 1.302-1.048 0.284-0.254 0.555-0.448 0.814-0.58v0c0.206-0.106 0.403-0.134 0.59-0.085 0.189 0.055 0.344 0.243 0.464 0.563v0l0.955 2.537 0.12-0.045c0.343-0.712 0.682-1.398 1.017-2.057 0.332-0.666 0.804-1.289 1.413-1.87 0.604-0.578 1.472-1.081 2.604-1.507v0c1.31-0.493 2.539-0.643 3.687-0.449 1.15 0.199 2.118 0.702 2.906 1.508v0l0.083-0.031c0.343-0.712 0.722-1.413 1.136-2.103 0.412-0.696 0.964-1.349 1.654-1.96 0.69-0.611 1.598-1.128 2.724-1.551v0c1.827-0.688 3.483-0.682 4.968 0.016 1.491 0.696 2.574 1.942 3.25 3.739v0l3.226 8.572c0.171 0.455 0.356 0.891 0.555 1.308 0.203 0.408 0.494 0.688 0.875 0.84 0.372 0.148 0.933 0.081 1.683-0.201v0c0.246-0.093 0.463-0.15 0.652-0.172 0.186-0.028 0.371 0.155 0.554 0.55v0c0.069 0.185 0.082 0.387 0.039 0.607-0.04 0.212-0.167 0.358-0.383 0.439v0c-0.802 0.239-1.532 0.474-2.188 0.707-0.663 0.235-1.357 0.49-2.083 0.763v0c-0.726 0.273-1.406 0.536-2.042 0.789-0.641 0.255-1.342 0.558-2.102 0.908v0c-0.209 0.079-0.402 0.053-0.577-0.078-0.172-0.139-0.292-0.301-0.362-0.486v0c-0.128-0.415-0.113-0.674 0.045-0.775 0.162-0.11 0.363-0.21 0.603-0.301v0c0.751-0.282 1.22-0.603 1.408-0.962 0.186-0.365 0.217-0.766 0.095-1.204-0.119-0.447-0.264-0.898-0.436-1.353v0l-3.211-8.536c-0.333-0.886-0.799-1.536-1.398-1.95-0.607-0.418-1.256-0.651-1.948-0.699-0.69-0.042-1.343 0.052-1.958 0.284v0c-0.91 0.343-1.626 0.802-2.147 1.376-0.519 0.581-0.885 1.158-1.098 1.73-0.216 0.566-0.342 1.042-0.379 1.428v0l3.604 9.578c0.171 0.455 0.344 0.896 0.518 1.322 0.172 0.42 0.436 0.71 0.792 0.872 0.347 0.157 0.896 0.095 1.646-0.188v0c0.271-0.102 0.494-0.161 0.67-0.178 0.174-0.023 0.353 0.162 0.536 0.556v0c0.069 0.185 0.082 0.387 0.039 0.607-0.04 0.212-0.167 0.358-0.382 0.439v0c-0.796 0.236-1.507 0.465-2.133 0.687-0.62 0.219-1.293 0.465-2.019 0.738v0c-0.695 0.262-1.342 0.512-1.94 0.751-0.604 0.241-1.284 0.536-2.038 0.883v0c-0.215 0.081-0.408 0.055-0.577-0.078-0.178-0.137-0.302-0.297-0.371-0.482v0c-0.122-0.418-0.11-0.675 0.036-0.772 0.144-0.103 0.351-0.206 0.622-0.307v0c0.751-0.282 1.204-0.597 1.361-0.945 0.161-0.356 0.168-0.748 0.021-1.177-0.15-0.435-0.31-0.88-0.481-1.335v0l-3.212-8.536c-0.505-1.341-1.273-2.161-2.306-2.461-1.033-0.3-2.017-0.274-2.952 0.078v0c-0.941 0.354-1.672 0.819-2.193 1.394-0.512 0.579-0.875 1.155-1.089 1.727-0.222 0.568-0.351 1.045-0.388 1.431v0l3.604 9.578c0.171 0.455 0.359 0.89 0.565 1.305 0.197 0.411 0.485 0.692 0.865 0.844 0.378 0.146 0.942 0.077 1.692-0.205v0c0.24-0.09 0.457-0.147 0.652-0.172 0.186-0.028 0.368 0.157 0.545 0.553v0c0.069 0.185 0.085 0.386 0.048 0.604-0.046 0.214-0.173 0.36-0.382 0.439v0c-0.802 0.239-1.535 0.476-2.198 0.711-0.663 0.235-1.354 0.488-2.074 0.759v0c-0.726 0.273-1.41 0.537-2.05 0.793-0.635 0.253-1.333 0.554-2.094 0.903z" fill="white"></path><path d="M146.801 29.769v0c-0.203-0.018-0.359-0.123-0.468-0.318-0.115-0.201-0.163-0.4-0.146-0.596v0c0.096-0.427 0.231-0.653 0.405-0.678 0.174-0.031 0.405-0.034 0.694-0.009v0c0.799 0.069 1.351-0.018 1.655-0.262 0.312-0.25 0.507-0.599 0.586-1.048 0.086-0.454 0.149-0.924 0.191-1.408v0l0.851-9.813c0.044-0.511 0.063-0.991 0.055-1.44-0.001-0.449-0.133-0.82-0.398-1.113-0.258-0.299-0.786-0.484-1.585-0.553v0c-0.262-0.023-0.495-0.076-0.699-0.16-0.21-0.091-0.296-0.352-0.258-0.784v0c0.037-0.426 0.288-0.661 0.753-0.707v0c1.327-0.09 2.35-0.202 3.068-0.338 0.718-0.142 1.27-0.269 1.656-0.381 0.379-0.106 0.713-0.163 1.004-0.17v0c0.231-0.006 0.421 0.053 0.569 0.178 0.147 0.131 0.206 0.367 0.176 0.708v0l-1.292 14.911c-0.042 0.485-0.063 0.958-0.064 1.419 0.007 0.456 0.149 0.834 0.426 1.136 0.278 0.295 0.816 0.476 1.616 0.545v0c0.255 0.022 0.473 0.064 0.652 0.126 0.186 0.056 0.274 0.301 0.263 0.735v0c-0.017 0.196-0.089 0.385-0.218 0.565-0.134 0.173-0.315 0.25-0.544 0.23v0c-0.82-0.13-1.58-0.233-2.279-0.306-0.7-0.074-1.436-0.144-2.209-0.211v0c-0.766-0.066-1.494-0.123-2.182-0.169-0.689-0.046-1.448-0.076-2.278-0.089zM153.202 5.118v0c-0.799-0.069-1.449-0.376-1.949-0.921-0.493-0.551-0.708-1.196-0.644-1.936v0c0.057-0.655 0.435-1.213 1.135-1.673 0.699-0.454 1.464-0.645 2.296-0.573v0c0.714 0.062 1.278 0.361 1.694 0.899 0.409 0.537 0.58 1.192 0.512 1.964v0c-0.06 0.688-0.382 1.25-0.967 1.688-0.579 0.438-1.271 0.622-2.077 0.552z" fill="white"></path><path d="M181.431 47.584v0c-0.739-0.388-1.344-0.918-1.815-1.589-0.471-0.671-0.757-1.378-0.857-2.121-0.091-0.746 0.031-1.436 0.364-2.07v0c0.384-0.674 0.806-1.124 1.267-1.35 0.46-0.226 0.893-0.321 1.298-0.287 0.399 0.032 0.723 0.094 0.971 0.187 0.239 0.096 0.333 0.13 0.28 0.103v0c0.483 0.254 0.802 0.544 0.957 0.871 0.152 0.318 0.195 0.541 0.127 0.668v0c-0.028 0.052-0.188 0.124-0.48 0.215-0.284 0.088-0.568 0.366-0.851 0.834v0c-0.265 0.447-0.359 0.966-0.283 1.556 0.082 0.593 0.44 1.056 1.074 1.389v0c0.71 0.373 1.493 0.451 2.351 0.233 0.854-0.212 1.711-0.578 2.571-1.099 0.854-0.524 1.634-1.053 2.339-1.588v0c0.474-0.464 0.768-1.052 0.883-1.764v0c0.111-1.694 0.282-3.468 0.514-5.321 0.232-1.853 0.455-3.648 0.67-5.385 0.212-1.73 0.337-3.283 0.377-4.658v0c0.091-1.148 0.049-2.02-0.127-2.618-0.173-0.589-0.613-1.136-1.321-1.641v0c-0.307-0.221-0.502-0.387-0.585-0.497-0.089-0.114-0.058-0.342 0.093-0.686v0c0.197-0.446 0.439-0.616 0.725-0.51 0.289 0.1 0.629 0.238 1.019 0.414v0c1.616 0.753 2.728 1.627 3.334 2.621 0.609 1.003 0.859 2.286 0.751 3.848v0c-0.058 0.972-0.179 2.156-0.364 3.551-0.181 1.39-0.344 2.808-0.488 4.255-0.144 1.447-0.243 2.772-0.297 3.976v0l0.122 0.064 8.97-8.015c0.641-0.598 0.893-1.049 0.756-1.352-0.135-0.294-0.584-0.641-1.346-1.041v0c-0.227-0.119-0.405-0.239-0.535-0.36-0.133-0.114-0.113-0.371 0.059-0.77v0c0.08-0.151 0.212-0.29 0.397-0.416 0.182-0.134 0.36-0.156 0.535-0.064v0c0.724 0.418 1.344 0.777 1.861 1.079 0.523 0.305 1.113 0.63 1.771 0.976v0c0.46 0.242 0.832 0.43 1.117 0.565 0.285 0.135 0.582 0.276 0.891 0.424 0.314 0.15 0.718 0.337 1.21 0.558v0c0.204 0.107 0.305 0.275 0.303 0.505-0.004 0.22-0.047 0.406-0.126 0.557v0c-0.231 0.369-0.437 0.528-0.618 0.477-0.184-0.045-0.378-0.121-0.582-0.228v0c-0.838-0.44-1.583-0.639-2.237-0.597-0.657 0.048-1.395 0.421-2.215 1.119v0c0 0-0.308 0.261-0.924 0.784-0.613 0.517-1.415 1.194-2.405 2.032-0.99 0.838-2.037 1.721-3.142 2.649-1.104 0.927-2.151 1.81-3.141 2.648-0.99 0.838-1.805 1.527-2.445 2.067-0.64 0.54-0.986 0.83-1.037 0.869v0c-0.745 0.611-1.596 1.255-2.553 1.933-0.952 0.68-1.95 1.258-2.995 1.734-1.042 0.47-2.091 0.757-3.148 0.862-1.067 0.108-2.08-0.091-3.04-0.596z" fill="white"></path><path d="M226.934 70.776v0c-1.095-1.363-1.583-2.767-1.463-4.213 0.129-1.445 0.742-2.607 1.839-3.488v0c1.137-0.914 2.27-1.335 3.399-1.264 1.119 0.07 2.226 0.467 3.32 1.189 1.095 0.722 2.16 1.612 3.195 2.669 1.039 1.062 2.032 2.115 2.98 3.158v0l2.644-2.124c1.05-0.844 1.661-1.769 1.831-2.774 0.174-1-0.241-2.125-1.245-3.376v0c-0.506-0.63-1.18-1.054-2.022-1.272-0.84-0.227-1.642-0.034-2.405 0.58v0c-0.359 0.288-0.586 0.619-0.683 0.991-0.102 0.377-0.152 0.708-0.15 0.994 0.011 0.286-0.007 0.448-0.053 0.485v0c-0.087 0.07-0.351 0.072-0.793 0.005-0.442-0.067-0.841-0.323-1.2-0.769v0c-0.556-0.692-0.729-1.438-0.521-2.238 0.208-0.791 0.624-1.437 1.25-1.94v0c0.851-0.683 1.734-0.959 2.649-0.826 0.912 0.127 1.811 0.518 2.699 1.17 0.888 0.644 1.674 1.391 2.358 2.242v0c0.807 1.004 1.468 2.079 1.984 3.224 0.52 1.151 0.681 2.311 0.483 3.482-0.198 1.171-0.991 2.314-2.379 3.43v0l-7.809 6.274c-0.209 0.202-0.435 0.472-0.677 0.81-0.238 0.343-0.37 0.736-0.395 1.178-0.03 0.446 0.134 0.891 0.493 1.337v0c0.128 0.159 0.198 0.304 0.212 0.436 0.018 0.138-0.096 0.305-0.342 0.503v0c-0.2 0.161-0.447 0.173-0.741 0.039-0.29-0.13-0.575-0.322-0.856-0.577-0.276-0.259-0.494-0.489-0.654-0.689v0c-0.663-0.825-1.017-1.754-1.064-2.788-0.037-1.033 0.324-1.947 1.084-2.743v0c-1.292 0.229-2.557 0.039-3.795-0.567-1.238-0.607-2.296-1.456-3.173-2.548zM229.599 70.393v0c0.613 0.763 1.365 1.31 2.254 1.641 0.89 0.331 1.821 0.425 2.796 0.284 0.978-0.137 1.869-0.528 2.673-1.175v0l1.906-1.531c-2.002-2.177-3.691-3.523-5.065-4.038-1.369-0.518-2.713-0.249-4.029 0.81v0c-1.522 1.223-1.7 2.559-0.535 4.009z" fill="white"></path><path d="M248.718 110.053v0c-0.242-0.737-0.207-1.43 0.105-2.079 0.314-0.643 0.852-1.09 1.614-1.34v0c0.712-0.234 1.391-0.188 2.038 0.139 0.655 0.331 1.108 0.877 1.359 1.639v0c0.242 0.737 0.2 1.439-0.127 2.108-0.323 0.66-0.84 1.107-1.552 1.34v0c-0.762 0.251-1.462 0.204-2.1-0.139-0.641-0.35-1.087-0.905-1.337-1.668z" fill="white"></path><path d="M12.336 190.105v0c-0.771-2.286-1.007-4.329-0.706-6.13 0.301-1.801 1.22-2.961 2.759-3.481v0c0.859-0.29 1.644-0.267 2.354 0.069 0.712 0.342 1.208 0.928 1.488 1.756v0c0.181 0.536 0.188 1.019 0.021 1.45-0.171 0.439-0.315 0.679-0.434 0.719v0c-0.087 0.029-0.344-0.075-0.771-0.312-0.425-0.231-0.977-0.232-1.656-0.003v0c-0.835 0.282-1.393 0.907-1.677 1.877-0.283 0.97-0.155 2.255 0.386 3.855v0c0.471 1.395 1.144 2.382 2.019 2.961 0.869 0.581 1.851 0.686 2.948 0.316v0c0.891-0.301 1.484-0.824 1.78-1.569 0.292-0.737 0.435-1.61 0.427-2.621-0.006-1.004-0.035-2.066-0.087-3.186-0.046-1.122-0.003-2.219 0.128-3.289 0.137-1.073 0.502-2.028 1.093-2.867 0.589-0.844 1.538-1.487 2.845-1.928v0c1.333-0.45 2.563-0.421 3.692 0.086 1.131 0.513 2.121 1.32 2.971 2.42 0.85 1.1 1.491 2.289 1.922 3.566v0c0.37 1.096 0.564 2.186 0.583 3.269 0.019 1.083-0.176 2.047-0.585 2.892-0.406 0.852-1.083 1.437-2.029 1.757v0c-0.741 0.25-1.487 0.238-2.239-0.035-0.76-0.278-1.279-0.831-1.559-1.659v0c-0.181-0.536-0.185-1.02-0.012-1.453 0.165-0.437 0.306-0.676 0.425-0.716v0c0.056-0.019 0.206 0.055 0.45 0.223 0.235 0.163 0.529 0.304 0.88 0.421 0.35 0.111 0.749 0.091 1.197-0.061v0c0.838-0.352 1.334-0.981 1.487-1.886 0.157-0.913 0.074-1.846-0.248-2.799v0c-0.349-1.034-0.926-1.911-1.731-2.631-0.805-0.72-1.681-0.921-2.627-0.601v0c-0.859 0.29-1.463 0.702-1.81 1.235-0.356 0.529-0.564 1.259-0.625 2.188-0.067 0.931-0.09 2.118-0.067 3.561v0c0.024 1.449-0.018 2.743-0.126 3.882-0.106 1.146-0.431 2.115-0.974 2.91-0.544 0.794-1.438 1.401-2.684 1.821v0c-1.246 0.42-2.477 0.441-3.694 0.061-1.217-0.38-2.308-1.094-3.273-2.142-0.964-1.048-1.711-2.357-2.241-3.926z" fill="white"></path><path d="M37.705 233.614v0c-1.273-1.418-1.884-2.92-1.831-4.504 0.048-1.58 0.644-2.884 1.789-3.911v0c1.184-1.063 2.389-1.589 3.617-1.579 1.233 0.006 2.466 0.37 3.698 1.093 1.241 0.723 2.458 1.631 3.651 2.724 1.188 1.097 2.331 2.183 3.427 3.256v0l2.759-2.476c1.096-0.984 1.706-2.026 1.83-3.127 0.129-1.096-0.393-2.297-1.566-3.603v0c-0.584-0.65-1.343-1.073-2.277-1.268-0.929-0.199-1.79 0.057-2.583 0.769v0c-0.372 0.334-0.604 0.71-0.696 1.128-0.087 0.414-0.119 0.778-0.094 1.091 0.034 0.314 0.027 0.492-0.022 0.536v0c-0.093 0.083-0.382 0.1-0.868 0.051-0.486-0.049-0.938-0.306-1.355-0.771v0c-0.65-0.724-0.884-1.525-0.701-2.404 0.177-0.875 0.591-1.604 1.242-2.188v0c0.885-0.795 1.831-1.149 2.836-1.063 1.005 0.087 2.012 0.455 3.019 1.106 1.003 0.654 1.901 1.424 2.696 2.309v0c0.944 1.052 1.732 2.185 2.365 3.402 0.628 1.221 0.87 2.474 0.727 3.76-0.149 1.291-0.944 2.584-2.388 3.879v0l-8.136 7.305c-0.213 0.235-0.441 0.546-0.685 0.933-0.239 0.383-0.361 0.818-0.364 1.307-0.003 0.489 0.204 0.965 0.621 1.43v0c0.145 0.161 0.23 0.315 0.255 0.46 0.025 0.146-0.092 0.335-0.352 0.568v0c-0.205 0.184-0.47 0.214-0.794 0.09-0.328-0.129-0.653-0.324-0.974-0.583-0.316-0.264-0.569-0.501-0.757-0.711v0c-0.773-0.861-1.213-1.853-1.32-2.976-0.102-1.127 0.237-2.147 1.016-3.059v0c-1.391 0.33-2.783 0.202-4.175-0.385-1.383-0.586-2.587-1.449-3.61-2.589zM40.592 233.036v0c0.711 0.792 1.564 1.343 2.557 1.653 0.993 0.309 2.015 0.36 3.064 0.151 1.054-0.213 1.999-0.695 2.836-1.446v0l1.995-1.792c-2.318-2.247-4.239-3.614-5.762-4.101-1.524-0.478-2.973-0.1-4.348 1.134v0c-1.585 1.423-1.699 2.89-0.342 4.401z" fill="white"></path><path d="M77.462 264.564v0c-0.204-0.075-0.338-0.233-0.403-0.474-0.059-0.239-0.051-0.46 0.023-0.664v0c0.192-0.427 0.393-0.629 0.602-0.608 0.207 0.027 0.44 0.088 0.7 0.184v0c0.827 0.304 1.445 0.374 1.855 0.21 0.411-0.164 0.724-0.473 0.94-0.925 0.218-0.459 0.418-0.935 0.599-1.429v0l3.716-10.094c0.195-0.53 0.354-1.029 0.477-1.495 0.125-0.472 0.09-0.902-0.104-1.288-0.185-0.39-0.691-0.738-1.518-1.043v0c-0.265-0.098-0.492-0.223-0.68-0.376-0.197-0.15-0.214-0.446-0.051-0.891v0c0.161-0.438 0.493-0.617 0.996-0.537v0c1.426 0.294 2.537 0.472 3.334 0.534 0.793 0.054 1.4 0.078 1.822 0.072 0.418-0.014 0.781 0.018 1.089 0.096v0c0.246 0.055 0.427 0.171 0.545 0.348 0.123 0.178 0.12 0.444-0.009 0.795v0l-1.022 2.776 0.129 0.047c0.79-0.339 1.56-0.662 2.31-0.967 0.746-0.314 1.578-0.491 2.497-0.531 0.914-0.049 1.988 0.154 3.222 0.609v0c1.437 0.529 2.561 1.282 3.37 2.259 0.808 0.984 1.252 2.089 1.333 3.317v0l0.092 0.034c0.79-0.339 1.604-0.646 2.44-0.92 0.832-0.282 1.751-0.427 2.755-0.435 1.007-0.015 2.127 0.205 3.361 0.659v0c1.998 0.736 3.362 1.921 4.091 3.555 0.735 1.636 0.741 3.439 0.017 5.406v0l-3.457 9.391c-0.182 0.493-0.338 0.986-0.47 1.477-0.129 0.485-0.091 0.923 0.115 1.314 0.206 0.391 0.72 0.738 1.54 1.039v0c0.265 0.098 0.486 0.203 0.661 0.317 0.173 0.12 0.194 0.404 0.064 0.854v0c-0.075 0.204-0.206 0.379-0.394 0.527-0.188 0.148-0.399 0.179-0.633 0.093v0c-0.831-0.369-1.604-0.695-2.318-0.98-0.717-0.278-1.47-0.562-2.26-0.853v0c-0.796-0.293-1.547-0.563-2.255-0.809-0.71-0.24-1.504-0.491-2.382-0.751v0c-0.234-0.086-0.375-0.247-0.422-0.481-0.047-0.234-0.033-0.453 0.042-0.656v0c0.192-0.427 0.393-0.629 0.603-0.609 0.207 0.027 0.443 0.09 0.708 0.188v0c0.82 0.302 1.436 0.371 1.847 0.206 0.411-0.164 0.724-0.473 0.939-0.925 0.218-0.459 0.418-0.935 0.6-1.429v0l3.439-9.345c0.356-0.968 0.435-1.839 0.237-2.612-0.199-0.773-0.564-1.426-1.096-1.959-0.541-0.528-1.151-0.917-1.829-1.167v0c-0.999-0.368-1.917-0.499-2.755-0.394-0.839 0.111-1.552 0.325-2.138 0.642-0.586 0.317-1.03 0.619-1.332 0.907v0l-3.862 10.492c-0.182 0.493-0.354 0.98-0.516 1.459-0.154 0.476-0.143 0.903 0.032 1.283 0.175 0.38 0.673 0.721 1.493 1.023v0c0.296 0.109 0.526 0.218 0.689 0.327 0.155 0.113 0.167 0.394 0.036 0.843v0c-0.075 0.204-0.206 0.379-0.394 0.528-0.188 0.148-0.399 0.179-0.633 0.092v0c-0.831-0.369-1.582-0.687-2.253-0.955-0.668-0.26-1.4-0.536-2.196-0.83v0c-0.765-0.282-1.48-0.538-2.144-0.768-0.667-0.224-1.436-0.466-2.307-0.723v0c-0.234-0.086-0.375-0.247-0.422-0.481-0.047-0.234-0.033-0.453 0.042-0.657v0c0.186-0.429 0.377-0.635 0.574-0.619 0.195 0.023 0.437 0.087 0.727 0.194v0c0.827 0.304 1.43 0.369 1.81 0.194 0.38-0.175 0.662-0.495 0.847-0.96 0.193-0.468 0.381-0.949 0.562-1.442v0l3.44-9.345c0.54-1.468 0.491-2.694-0.148-3.679-0.639-0.985-1.474-1.667-2.503-2.046v0c-1.024-0.377-1.954-0.513-2.792-0.408-0.846 0.109-1.558 0.323-2.138 0.642-0.586 0.317-1.033 0.618-1.341 0.904v0l-3.862 10.492c-0.182 0.493-0.338 0.986-0.47 1.476-0.123 0.487-0.082 0.926 0.124 1.317 0.206 0.391 0.72 0.738 1.54 1.04v0c0.265 0.098 0.486 0.203 0.661 0.317 0.173 0.12 0.191 0.403 0.055 0.85v0c-0.075 0.204-0.206 0.379-0.394 0.527-0.188 0.148-0.399 0.179-0.633 0.093v0c-0.831-0.369-1.601-0.694-2.309-0.976-0.717-0.278-1.474-0.563-2.27-0.856v0c-0.79-0.291-1.541-0.56-2.255-0.809-0.71-0.24-1.501-0.489-2.372-0.748z" fill="white"></path><path d="M149.393 279.997v0c-0.216 0.02-0.402-0.064-0.558-0.254-0.163-0.189-0.255-0.392-0.276-0.608v0c0.021-0.471 0.121-0.741 0.3-0.811 0.185-0.064 0.432-0.11 0.739-0.139v0c0.877-0.083 1.455-0.286 1.735-0.61 0.286-0.324 0.429-0.737 0.427-1.239-0.002-0.508-0.028-1.024-0.077-1.547v0l-1.014-10.709c-0.053-0.563-0.125-1.081-0.216-1.554-0.092-0.48-0.308-0.852-0.651-1.117-0.336-0.272-0.942-0.366-1.819-0.283v0c-0.275 0.026-0.534 0.011-0.777-0.045-0.242-0.05-0.386-0.31-0.43-0.782v0c-0.044-0.465 0.178-0.77 0.666-0.914v0c1.413-0.352 2.491-0.672 3.237-0.96 0.745-0.295 1.313-0.537 1.704-0.726 0.384-0.195 0.732-0.323 1.042-0.386v0c0.246-0.056 0.459-0.03 0.642 0.078 0.188 0.108 0.3 0.348 0.335 0.721v0l1.541 16.274c0.05 0.523 0.121 1.035 0.215 1.534 0.093 0.493 0.317 0.871 0.672 1.135 0.355 0.263 0.968 0.354 1.838 0.272v0c0.281-0.027 0.526-0.027 0.732-0.001 0.208 0.033 0.35 0.28 0.427 0.742v0c0.02 0.216-0.022 0.431-0.127 0.646-0.105 0.215-0.282 0.334-0.531 0.357v0c-0.915 0.027-1.753 0.067-2.514 0.12-0.767 0.059-1.569 0.129-2.406 0.208v0c-0.844 0.08-1.639 0.162-2.384 0.245-0.751 0.091-1.575 0.208-2.472 0.353zM151.442 252.262v0c-0.877 0.083-1.635-0.119-2.276-0.607-0.647-0.487-1.009-1.136-1.085-1.947v0c-0.068-0.72 0.231-1.392 0.898-2.016 0.66-0.63 1.445-0.988 2.354-1.075v0c0.779-0.074 1.442 0.137 1.992 0.634 0.549 0.503 0.864 1.173 0.942 2.01v0c0.071 0.753-0.163 1.422-0.701 2.007-0.546 0.58-1.254 0.911-2.124 0.994z" fill="white"></path><path d="M200.04 277.03v0c-0.801 0.425-1.648 0.645-2.542 0.658-0.899 0.016-1.712-0.162-2.439-0.536-0.736-0.376-1.287-0.909-1.653-1.6v0c-0.366-0.758-0.51-1.415-0.433-1.97 0.077-0.555 0.256-1.003 0.536-1.345 0.277-0.348 0.534-0.6 0.771-0.755 0.234-0.162 0.322-0.227 0.264-0.196v0c0.528-0.281 0.984-0.389 1.368-0.325 0.387 0.055 0.617 0.152 0.691 0.292v0c0.031 0.058-0.004 0.244-0.105 0.558-0.098 0.32-0.018 0.75 0.239 1.291v0c0.233 0.509 0.64 0.91 1.22 1.205 0.581 0.294 1.216 0.258 1.908-0.109v0c0.772-0.41 1.328-1.066 1.667-1.968 0.336-0.908 0.531-1.908 0.583-3.001 0.058-1.095 0.062-2.124 0.012-3.087v0c-0.132-0.711-0.484-1.339-1.056-1.884v0c-1.454-1.14-2.949-2.386-4.485-3.736-1.527-1.347-3.009-2.652-4.445-3.913-1.428-1.259-2.748-2.329-3.96-3.21v0c-0.984-0.787-1.799-1.285-2.445-1.493-0.64-0.211-1.405-0.151-2.293 0.18v0c-0.388 0.139-0.658 0.212-0.811 0.219-0.155 0.016-0.34-0.15-0.555-0.498v0c-0.279-0.455-0.284-0.78-0.015-0.975 0.269-0.195 0.601-0.416 0.998-0.664v0c1.675-0.994 3.149-1.456 4.421-1.388 1.278 0.066 2.588 0.627 3.931 1.686v0c0.836 0.65 1.827 1.486 2.973 2.507 1.145 1.022 2.328 2.042 3.546 3.061 1.213 1.023 2.348 1.927 3.406 2.713v0l0.122-0.065-1.706-13.026c-0.153-0.946-0.405-1.448-0.756-1.508-0.346-0.062-0.933 0.127-1.763 0.568v0c-0.25 0.133-0.471 0.22-0.664 0.264-0.184 0.046-0.4-0.13-0.648-0.527v0c-0.089-0.168-0.136-0.374-0.139-0.618-0.009-0.241 0.085-0.414 0.283-0.519v0c0.813-0.402 1.518-0.743 2.114-1.022 0.596-0.279 1.254-0.61 1.973-0.993v0c0.493-0.262 0.891-0.481 1.193-0.655 0.293-0.178 0.601-0.36 0.926-0.548 0.322-0.193 0.74-0.442 1.256-0.745v0c0.221-0.117 0.431-0.106 0.632 0.033 0.195 0.142 0.337 0.298 0.426 0.466v0c0.19 0.428 0.206 0.709 0.047 0.845-0.149 0.139-0.337 0.269-0.564 0.389v0c-0.911 0.484-1.549 1.035-1.913 1.653-0.358 0.615-0.474 1.51-0.349 2.685v0c0 0 0.044 0.434 0.134 1.303 0.092 0.874 0.211 2.016 0.358 3.427 0.146 1.411 0.301 2.899 0.462 4.465 0.153 1.563 0.303 3.051 0.45 4.461 0.146 1.411 0.268 2.571 0.363 3.48 0.087 0.906 0.134 1.395 0.142 1.465v0c0.093 1.044 0.153 2.207 0.179 3.489 0.026 1.281-0.07 2.538-0.287 3.769-0.217 1.231-0.602 2.355-1.156 3.372-0.557 1.025-1.361 1.817-2.412 2.375z" fill="white"></path><path d="M243.859 231.764v0c-1.192 1.488-2.573 2.335-4.145 2.541-1.567 0.211-2.95-0.165-4.151-1.126v0c-1.241-0.994-1.957-2.098-2.147-3.312-0.195-1.218-0.037-2.493 0.475-3.826 0.511-1.342 1.208-2.691 2.092-4.047 0.889-1.351 1.773-2.656 2.653-3.912v0l-2.893-2.318c-1.149-0.92-2.277-1.352-3.384-1.295-1.103 0.052-2.202 0.762-3.299 2.132v0c-0.546 0.682-0.84 1.5-0.879 2.454-0.045 0.95 0.349 1.757 1.179 2.423v0c0.39 0.312 0.799 0.48 1.227 0.502 0.423 0.019 0.787-0.01 1.092-0.085 0.304-0.085 0.481-0.107 0.533-0.066v0c0.097 0.078 0.161 0.361 0.192 0.848 0.031 0.488-0.149 0.975-0.54 1.463v0c-0.608 0.759-1.361 1.121-2.258 1.084-0.892-0.032-1.679-0.322-2.361-0.868v0c-0.929-0.744-1.432-1.619-1.511-2.625-0.078-1.006 0.121-2.059 0.598-3.159 0.482-1.096 1.095-2.108 1.838-3.037v0c0.883-1.103 1.874-2.066 2.971-2.888 1.102-0.819 2.299-1.262 3.591-1.33 1.298-0.064 2.703 0.51 4.217 1.722v0l8.534 6.836c0.267 0.172 0.611 0.346 1.033 0.524 0.417 0.174 0.866 0.222 1.348 0.145 0.482-0.077 0.919-0.359 1.31-0.846v0c0.136-0.169 0.273-0.278 0.413-0.326 0.14-0.048 0.345 0.037 0.617 0.254v0c0.215 0.173 0.288 0.429 0.218 0.769-0.074 0.345-0.213 0.697-0.416 1.056-0.209 0.355-0.401 0.643-0.578 0.863v0c-0.723 0.903-1.63 1.499-2.721 1.788-1.095 0.285-2.157 0.117-3.183-0.504v0c0.553 1.318 0.653 2.712 0.3 4.182-0.353 1.461-1.008 2.788-1.965 3.984zM242.818 229.01v0c0.666-0.831 1.07-1.762 1.213-2.792 0.143-1.031 0.026-2.046-0.35-3.048-0.382-1.005-1.012-1.859-1.89-2.561v0l-2.093-1.677c-1.839 2.653-2.874 4.772-3.106 6.355-0.223 1.582 0.387 2.95 1.828 4.104v0c1.662 1.331 3.128 1.204 4.398-0.381z" fill="white"></path><path d="M269.23 186.239v0c-0.269 0.804-0.751 1.384-1.446 1.741-0.703 0.361-1.469 0.402-2.298 0.124v0c-0.773-0.259-1.334-0.745-1.684-1.459-0.358-0.709-0.398-1.482-0.118-2.316v0c0.267-0.798 0.761-1.381 1.48-1.75 0.714-0.371 1.457-0.427 2.23-0.168v0c0.829 0.278 1.413 0.779 1.753 1.502 0.334 0.722 0.361 1.497 0.083 2.326z" fill="white"></path><path d="M4.257 144.47c0-6.359 5.155-11.513 11.513-11.513 6.359 0 11.513 5.155 11.514 11.513 0 6.359-5.155 11.513-11.514 11.513-6.359 0-11.513-5.155-11.513-11.513z" fill="white"></path><path d="M252.716 144.47c0-6.359 5.155-11.513 11.514-11.513 6.359 0 11.513 5.155 11.513 11.513 0 6.359-5.155 11.513-11.513 11.513-6.359 0-11.513-5.155-11.514-11.513z" fill="white"></path></g><g id="SvgjsG2379"></g></svg></g></svg></g></svg></g><g></g></svg></g><defs><mask></mask></defs></svg><rect width="280" height="280" fill="black" stroke="none" visibility="hidden"></rect></g></mask><linearGradient x1="0" x2="1" y1="0.5" y2="0.5" id="a64eb211-9a45-4dbf-b412-3ac976305926"><stop stop-color="#f00b51" offset="0"></stop><stop stop-color="#730062" offset="1"></stop></linearGradient><rect width="280" height="280" fill="url(#a64eb211-9a45-4dbf-b412-3ac976305926)" mask="url(#52a32ca5-2e3b-4421-8c1f-ec33c3e43d88)" data-fill-palette-color="primary"></rect><mask id="58a02326-4174-40c2-8078-e0e26feab00f"><g id="SvgjsG2414"><svg viewBox="0 0 280 280" height="280" width="280"><g><svg viewBox="0 0 280 280" height="280" width="280"><g><svg viewBox="0 0 280 280" height="280" width="280"><g id="SvgjsG2413"><svg viewBox="0 0 280 280" height="280" width="280" id="SvgjsSvg2412"><g><svg viewBox="0 0 280 280" height="280" width="280"><g transform="matrix(1,0,0,1,90.50252531694167,109.06407832308855)"><svg viewBox="0 0 98.99494936611666 61.87184335382291" height="61.87184335382291" width="98.99494936611666"><g id="SvgjsG2411"><svg xmlns="http://www.w3.org/2000/svg" data-name="Layer 1" viewBox="0 24 128 80" x="0" y="0" height="61.87184335382291" width="98.99494936611666" class="icon-jxe-0" data-fill-palette-color="accent" id="SvgjsSvg2410"><path d="M122 24H6A6.007 6.007 0 0 0 0 30V98A6.007 6.007 0 0 0 6 104H122A6.007 6.007 0 0 0 128 98V30A6.007 6.007 0 0 0 122 24M124 98A2 2 0 0 1 122 100H6A2 2 0 0 1 4 98V30A2 2 0 0 1 6 28H122A2 2 0 0 1 124 30Z" fill="white"></path><path d="M114 73H58A2 2 0 0 0 58 77H114A2 2 0 0 0 114 73" fill="white"></path><path d="M114 81H58A2 2 0 0 0 58 85H114A2 2 0 0 0 114 81" fill="white"></path><path d="M44 90H16A2 2 0 0 0 16 94H44A2 2 0 0 0 44 90" fill="white"></path><path d="M24.819 66.487L23.003 78.497A2 2 0 0 0 23.695 80.326L27.695 83.684A2 2 0 0 0 30.235 83.709L34.235 80.487A2 2 0 0 0 34.961 78.648L33.247 66.59A15 15 0 0 1 29.287 67.15L30.84 78.085 29.007 79.563 27.126 77.984 28.767 67.128A15 15 0 0 1 24.819 66.488" fill="white"></path><path d="M21.237 65.151H21.78A15.1 15.1 0 0 1 17.635 61.654C12.46 63.142 8.981 67.839 8.981 73.908V83.151A2 2 0 1 0 12.981 83.151V73.908C12.981 68.752 16.376 65.151 21.237 65.151" fill="white"></path><path d="M40.72 61.777A15.1 15.1 0 0 1 36.682 65.15H36.724C41.585 65.151 44.981 68.752 44.981 73.908V83.151A2 2 0 0 0 48.981 83.151V73.908C48.981 67.994 45.676 63.386 40.72 61.777" fill="white"></path><path d="M28.98 63.151A11 11 0 1 0 17.98 52.151 11 11 0 0 0 28.98 63.151M28.98 45.151A7 7 0 1 1 21.98 52.151 7.01 7.01 0 0 1 28.98 45.151" fill="white"></path><path d="M114 42H58A2 2 0 0 0 56 44V64A2 2 0 0 0 58 66H114A2 2 0 0 0 116 64V44A2 2 0 0 0 114 42M112 62H60V46H112Z" fill="white"></path><path d="M64 58A2 2 0 0 0 66 60H70A2 2 0 0 0 70 56V52A2 2 0 0 0 70 48H66A2 2 0 0 0 66 52V56A2 2 0 0 0 64 58" fill="white"></path></svg></g></svg></g><g id="SvgjsG2409"></g><g id="SvgjsG2408"></g></svg></g></svg></g></svg></g><g></g></svg></g><defs><mask></mask></defs><mask><g id="SvgjsG2407"><svg viewBox="0 0 280 280" height="280" width="280"><g><svg viewBox="0 0 280 280" height="280" width="280"><g><svg viewBox="0 0 280 280" height="280" width="280"><g id="SvgjsG2406"><svg viewBox="0 0 280 280" height="280" width="280" id="SvgjsSvg2405"><g><svg viewBox="0 0 280 280" height="280" width="280"><g transform="matrix(1,0,0,1,90.50252531694167,109.06407832308855)"><svg viewBox="0 0 98.99494936611666 61.87184335382291" height="61.87184335382291" width="98.99494936611666"><g id="SvgjsG2404"><svg xmlns="http://www.w3.org/2000/svg" data-name="Layer 1" viewBox="0 24 128 80" x="0" y="0" height="61.87184335382291" width="98.99494936611666" class="icon-jxe-0" data-fill-palette-color="accent" id="SvgjsSvg2403"><path d="M122 24H6A6.007 6.007 0 0 0 0 30V98A6.007 6.007 0 0 0 6 104H122A6.007 6.007 0 0 0 128 98V30A6.007 6.007 0 0 0 122 24M124 98A2 2 0 0 1 122 100H6A2 2 0 0 1 4 98V30A2 2 0 0 1 6 28H122A2 2 0 0 1 124 30Z" fill="black"></path><path d="M114 73H58A2 2 0 0 0 58 77H114A2 2 0 0 0 114 73" fill="black"></path><path d="M114 81H58A2 2 0 0 0 58 85H114A2 2 0 0 0 114 81" fill="black"></path><path d="M44 90H16A2 2 0 0 0 16 94H44A2 2 0 0 0 44 90" fill="black"></path><path d="M24.819 66.487L23.003 78.497A2 2 0 0 0 23.695 80.326L27.695 83.684A2 2 0 0 0 30.235 83.709L34.235 80.487A2 2 0 0 0 34.961 78.648L33.247 66.59A15 15 0 0 1 29.287 67.15L30.84 78.085 29.007 79.563 27.126 77.984 28.767 67.128A15 15 0 0 1 24.819 66.488" fill="black"></path><path d="M21.237 65.151H21.78A15.1 15.1 0 0 1 17.635 61.654C12.46 63.142 8.981 67.839 8.981 73.908V83.151A2 2 0 1 0 12.981 83.151V73.908C12.981 68.752 16.376 65.151 21.237 65.151" fill="black"></path><path d="M40.72 61.777A15.1 15.1 0 0 1 36.682 65.15H36.724C41.585 65.151 44.981 68.752 44.981 73.908V83.151A2 2 0 0 0 48.981 83.151V73.908C48.981 67.994 45.676 63.386 40.72 61.777" fill="black"></path><path d="M28.98 63.151A11 11 0 1 0 17.98 52.151 11 11 0 0 0 28.98 63.151M28.98 45.151A7 7 0 1 1 21.98 52.151 7.01 7.01 0 0 1 28.98 45.151" fill="black"></path><path d="M114 42H58A2 2 0 0 0 56 44V64A2 2 0 0 0 58 66H114A2 2 0 0 0 116 64V44A2 2 0 0 0 114 42M112 62H60V46H112Z" fill="black"></path><path d="M64 58A2 2 0 0 0 66 60H70A2 2 0 0 0 70 56V52A2 2 0 0 0 70 48H66A2 2 0 0 0 66 52V56A2 2 0 0 0 64 58" fill="black"></path></svg></g></svg></g><g id="SvgjsG2402"><path d="M32.665 106.539v0c-0.694 2.097-1.648 3.723-2.862 4.878-1.212 1.15-2.522 1.491-3.933 1.025v0c-0.792-0.262-1.353-0.711-1.683-1.347-0.336-0.637-0.378-1.337-0.126-2.098v0c0.163-0.493 0.428-0.852 0.793-1.077 0.359-0.227 0.592-0.323 0.698-0.288v0c0.087 0.029 0.22 0.246 0.397 0.65 0.184 0.407 0.588 0.714 1.212 0.921v0c0.767 0.254 1.521 0.102 2.259-0.457 0.743-0.55 1.358-1.562 1.846-3.034v0c0.424-1.279 0.476-2.369 0.159-3.271-0.322-0.91-0.985-1.531-1.99-1.863v0c-0.817-0.271-1.539-0.215-2.163 0.166-0.625 0.382-1.212 0.942-1.762 1.681-0.543 0.741-1.108 1.537-1.694 2.388-0.578 0.847-1.213 1.624-1.904 2.33-0.687 0.714-1.48 1.217-2.378 1.508-0.893 0.293-1.939 0.241-3.137-0.156v0c-1.229-0.407-2.115-1.109-2.658-2.106-0.549-0.999-0.831-2.134-0.845-3.406-0.015-1.272 0.172-2.495 0.56-3.667v0c0.333-1.005 0.791-1.909 1.376-2.712 0.585-0.803 1.258-1.404 2.019-1.803 0.766-0.39 1.583-0.442 2.451-0.155v0c0.68 0.225 1.223 0.644 1.63 1.256 0.398 0.617 0.471 1.305 0.219 2.067v0c-0.163 0.493-0.428 0.852-0.793 1.077-0.359 0.227-0.595 0.322-0.707 0.285v0c-0.05-0.017-0.116-0.153-0.197-0.408-0.084-0.249-0.224-0.514-0.423-0.794-0.194-0.272-0.497-0.476-0.908-0.612v0c-0.803-0.21-1.512-0.023-2.129 0.562-0.614 0.579-1.066 1.305-1.355 2.179v0c-0.314 0.948-0.376 1.908-0.184 2.878 0.191 0.97 0.723 1.6 1.597 1.889v0c0.786 0.26 1.453 0.294 2.002 0.102 0.55-0.199 1.106-0.621 1.665-1.266 0.56-0.645 1.229-1.504 2.006-2.576v0c0.777-1.072 1.523-1.995 2.236-2.77 0.707-0.777 1.478-1.307 2.313-1.591 0.833-0.278 1.82-0.228 2.963 0.15v0c1.142 0.378 2.055 1.04 2.738 1.986 0.682 0.953 1.088 2.077 1.22 3.374 0.125 1.295-0.051 2.663-0.528 4.104z" fill="black"></path><path d="M53.774 69.934v0c-1.164 1.305-2.469 2.017-3.914 2.136-1.446 0.11-2.694-0.303-3.744-1.239v0c-1.089-0.971-1.691-2.02-1.806-3.144-0.115-1.115 0.094-2.272 0.626-3.471 0.532-1.199 1.235-2.396 2.107-3.591 0.877-1.2 1.751-2.353 2.624-3.459v0l-2.53-2.258c-1.005-0.897-2.018-1.347-3.038-1.349-1.015-0.007-2.057 0.587-3.124 1.783v0c-0.538 0.603-0.846 1.338-0.922 2.204-0.086 0.866 0.237 1.625 0.967 2.277v0c0.343 0.306 0.707 0.476 1.091 0.51 0.389 0.038 0.723 0.033 1.004-0.015 0.281-0.058 0.443-0.067 0.488-0.028v0c0.083 0.074 0.128 0.335 0.135 0.782 0.007 0.447-0.18 0.883-0.561 1.309v0c-0.591 0.662-1.298 0.956-2.121 0.882-0.814-0.075-1.521-0.379-2.119-0.912v0c-0.814-0.726-1.231-1.552-1.252-2.478-0.024-0.92 0.212-1.872 0.711-2.855 0.489-0.982 1.096-1.88 1.822-2.694v0c0.858-0.961 1.809-1.791 2.855-2.488 1.049-0.702 2.168-1.052 3.354-1.05 1.187 0.002 2.445 0.596 3.775 1.783v0l7.474 6.669c0.233 0.173 0.537 0.351 0.91 0.535 0.378 0.179 0.787 0.244 1.226 0.195 0.444-0.044 0.857-0.279 1.238-0.706v0c0.136-0.152 0.268-0.246 0.396-0.281 0.133-0.04 0.317 0.045 0.552 0.255v0c0.191 0.171 0.245 0.412 0.16 0.724-0.08 0.307-0.223 0.62-0.428 0.939-0.21 0.315-0.401 0.567-0.571 0.759v0c-0.705 0.79-1.563 1.292-2.575 1.508-1.012 0.207-1.974 0.001-2.884-0.618v0c0.438 1.237 0.46 2.516 0.065 3.837-0.395 1.321-1.058 2.504-1.991 3.549zM52.958 67.369v0c0.652-0.731 1.068-1.562 1.247-2.494 0.18-0.932 0.12-1.867-0.18-2.804-0.296-0.942-0.829-1.757-1.599-2.444v0l-1.824-1.628c-1.818 2.333-2.867 4.22-3.148 5.661-0.286 1.436 0.201 2.717 1.461 3.841v0c1.457 1.3 2.804 1.256 4.043-0.132z" fill="black"></path><path d="M85.265 43.702v0c-0.185 0.069-0.371 0.041-0.558-0.084-0.19-0.132-0.32-0.29-0.39-0.475v0c-0.122-0.418-0.104-0.677 0.055-0.779 0.156-0.108 0.357-0.208 0.603-0.301v0c0.751-0.282 1.22-0.603 1.408-0.962 0.18-0.363 0.211-0.764 0.094-1.204-0.125-0.445-0.273-0.894-0.444-1.35v0l-3.469-9.219c-0.181-0.48-0.368-0.922-0.562-1.326-0.2-0.402-0.48-0.68-0.84-0.832-0.368-0.157-0.927-0.094-1.678 0.189v0c-0.24 0.09-0.473 0.143-0.699 0.157-0.228 0.009-0.419-0.19-0.572-0.596v0c-0.15-0.4-0.025-0.721 0.375-0.962v0c1.165-0.656 2.042-1.2 2.63-1.633 0.58-0.436 1.014-0.785 1.302-1.048 0.284-0.254 0.555-0.448 0.814-0.58v0c0.206-0.106 0.403-0.134 0.59-0.085 0.189 0.055 0.344 0.243 0.464 0.563v0l0.955 2.537 0.12-0.045c0.343-0.712 0.682-1.398 1.017-2.057 0.332-0.666 0.804-1.289 1.413-1.87 0.604-0.578 1.472-1.081 2.604-1.507v0c1.31-0.493 2.539-0.643 3.687-0.449 1.15 0.199 2.118 0.702 2.906 1.508v0l0.083-0.031c0.343-0.712 0.722-1.413 1.136-2.103 0.412-0.696 0.964-1.349 1.654-1.96 0.69-0.611 1.598-1.128 2.724-1.551v0c1.827-0.688 3.483-0.682 4.968 0.016 1.491 0.696 2.574 1.942 3.25 3.739v0l3.226 8.572c0.171 0.455 0.356 0.891 0.555 1.308 0.203 0.408 0.494 0.688 0.875 0.84 0.372 0.148 0.933 0.081 1.683-0.201v0c0.246-0.093 0.463-0.15 0.652-0.172 0.186-0.028 0.371 0.155 0.554 0.55v0c0.069 0.185 0.082 0.387 0.039 0.607-0.04 0.212-0.167 0.358-0.383 0.439v0c-0.802 0.239-1.532 0.474-2.188 0.707-0.663 0.235-1.357 0.49-2.083 0.763v0c-0.726 0.273-1.406 0.536-2.042 0.789-0.641 0.255-1.342 0.558-2.102 0.908v0c-0.209 0.079-0.402 0.053-0.577-0.078-0.172-0.139-0.292-0.301-0.362-0.486v0c-0.128-0.415-0.113-0.674 0.045-0.775 0.162-0.11 0.363-0.21 0.603-0.301v0c0.751-0.282 1.22-0.603 1.408-0.962 0.186-0.365 0.217-0.766 0.095-1.204-0.119-0.447-0.264-0.898-0.436-1.353v0l-3.211-8.536c-0.333-0.886-0.799-1.536-1.398-1.95-0.607-0.418-1.256-0.651-1.948-0.699-0.69-0.042-1.343 0.052-1.958 0.284v0c-0.91 0.343-1.626 0.802-2.147 1.376-0.519 0.581-0.885 1.158-1.098 1.73-0.216 0.566-0.342 1.042-0.379 1.428v0l3.604 9.578c0.171 0.455 0.344 0.896 0.518 1.322 0.172 0.42 0.436 0.71 0.792 0.872 0.347 0.157 0.896 0.095 1.646-0.188v0c0.271-0.102 0.494-0.161 0.67-0.178 0.174-0.023 0.353 0.162 0.536 0.556v0c0.069 0.185 0.082 0.387 0.039 0.607-0.04 0.212-0.167 0.358-0.382 0.439v0c-0.796 0.236-1.507 0.465-2.133 0.687-0.62 0.219-1.293 0.465-2.019 0.738v0c-0.695 0.262-1.342 0.512-1.94 0.751-0.604 0.241-1.284 0.536-2.038 0.883v0c-0.215 0.081-0.408 0.055-0.577-0.078-0.178-0.137-0.302-0.297-0.371-0.482v0c-0.122-0.418-0.11-0.675 0.036-0.772 0.144-0.103 0.351-0.206 0.622-0.307v0c0.751-0.282 1.204-0.597 1.361-0.945 0.161-0.356 0.168-0.748 0.021-1.177-0.15-0.435-0.31-0.88-0.481-1.335v0l-3.212-8.536c-0.505-1.341-1.273-2.161-2.306-2.461-1.033-0.3-2.017-0.274-2.952 0.078v0c-0.941 0.354-1.672 0.819-2.193 1.394-0.512 0.579-0.875 1.155-1.089 1.727-0.222 0.568-0.351 1.045-0.388 1.431v0l3.604 9.578c0.171 0.455 0.359 0.89 0.565 1.305 0.197 0.411 0.485 0.692 0.865 0.844 0.378 0.146 0.942 0.077 1.692-0.205v0c0.24-0.09 0.457-0.147 0.652-0.172 0.186-0.028 0.368 0.157 0.545 0.553v0c0.069 0.185 0.085 0.386 0.048 0.604-0.046 0.214-0.173 0.36-0.382 0.439v0c-0.802 0.239-1.535 0.476-2.198 0.711-0.663 0.235-1.354 0.488-2.074 0.759v0c-0.726 0.273-1.41 0.537-2.05 0.793-0.635 0.253-1.333 0.554-2.094 0.903z" fill="black"></path><path d="M146.801 29.769v0c-0.203-0.018-0.359-0.123-0.468-0.318-0.115-0.201-0.163-0.4-0.146-0.596v0c0.096-0.427 0.231-0.653 0.405-0.678 0.174-0.031 0.405-0.034 0.694-0.009v0c0.799 0.069 1.351-0.018 1.655-0.262 0.312-0.25 0.507-0.599 0.586-1.048 0.086-0.454 0.149-0.924 0.191-1.408v0l0.851-9.813c0.044-0.511 0.063-0.991 0.055-1.44-0.001-0.449-0.133-0.82-0.398-1.113-0.258-0.299-0.786-0.484-1.585-0.553v0c-0.262-0.023-0.495-0.076-0.699-0.16-0.21-0.091-0.296-0.352-0.258-0.784v0c0.037-0.426 0.288-0.661 0.753-0.707v0c1.327-0.09 2.35-0.202 3.068-0.338 0.718-0.142 1.27-0.269 1.656-0.381 0.379-0.106 0.713-0.163 1.004-0.17v0c0.231-0.006 0.421 0.053 0.569 0.178 0.147 0.131 0.206 0.367 0.176 0.708v0l-1.292 14.911c-0.042 0.485-0.063 0.958-0.064 1.419 0.007 0.456 0.149 0.834 0.426 1.136 0.278 0.295 0.816 0.476 1.616 0.545v0c0.255 0.022 0.473 0.064 0.652 0.126 0.186 0.056 0.274 0.301 0.263 0.735v0c-0.017 0.196-0.089 0.385-0.218 0.565-0.134 0.173-0.315 0.25-0.544 0.23v0c-0.82-0.13-1.58-0.233-2.279-0.306-0.7-0.074-1.436-0.144-2.209-0.211v0c-0.766-0.066-1.494-0.123-2.182-0.169-0.689-0.046-1.448-0.076-2.278-0.089zM153.202 5.118v0c-0.799-0.069-1.449-0.376-1.949-0.921-0.493-0.551-0.708-1.196-0.644-1.936v0c0.057-0.655 0.435-1.213 1.135-1.673 0.699-0.454 1.464-0.645 2.296-0.573v0c0.714 0.062 1.278 0.361 1.694 0.899 0.409 0.537 0.58 1.192 0.512 1.964v0c-0.06 0.688-0.382 1.25-0.967 1.688-0.579 0.438-1.271 0.622-2.077 0.552z" fill="black"></path><path d="M181.431 47.584v0c-0.739-0.388-1.344-0.918-1.815-1.589-0.471-0.671-0.757-1.378-0.857-2.121-0.091-0.746 0.031-1.436 0.364-2.07v0c0.384-0.674 0.806-1.124 1.267-1.35 0.46-0.226 0.893-0.321 1.298-0.287 0.399 0.032 0.723 0.094 0.971 0.187 0.239 0.096 0.333 0.13 0.28 0.103v0c0.483 0.254 0.802 0.544 0.957 0.871 0.152 0.318 0.195 0.541 0.127 0.668v0c-0.028 0.052-0.188 0.124-0.48 0.215-0.284 0.088-0.568 0.366-0.851 0.834v0c-0.265 0.447-0.359 0.966-0.283 1.556 0.082 0.593 0.44 1.056 1.074 1.389v0c0.71 0.373 1.493 0.451 2.351 0.233 0.854-0.212 1.711-0.578 2.571-1.099 0.854-0.524 1.634-1.053 2.339-1.588v0c0.474-0.464 0.768-1.052 0.883-1.764v0c0.111-1.694 0.282-3.468 0.514-5.321 0.232-1.853 0.455-3.648 0.67-5.385 0.212-1.73 0.337-3.283 0.377-4.658v0c0.091-1.148 0.049-2.02-0.127-2.618-0.173-0.589-0.613-1.136-1.321-1.641v0c-0.307-0.221-0.502-0.387-0.585-0.497-0.089-0.114-0.058-0.342 0.093-0.686v0c0.197-0.446 0.439-0.616 0.725-0.51 0.289 0.1 0.629 0.238 1.019 0.414v0c1.616 0.753 2.728 1.627 3.334 2.621 0.609 1.003 0.859 2.286 0.751 3.848v0c-0.058 0.972-0.179 2.156-0.364 3.551-0.181 1.39-0.344 2.808-0.488 4.255-0.144 1.447-0.243 2.772-0.297 3.976v0l0.122 0.064 8.97-8.015c0.641-0.598 0.893-1.049 0.756-1.352-0.135-0.294-0.584-0.641-1.346-1.041v0c-0.227-0.119-0.405-0.239-0.535-0.36-0.133-0.114-0.113-0.371 0.059-0.77v0c0.08-0.151 0.212-0.29 0.397-0.416 0.182-0.134 0.36-0.156 0.535-0.064v0c0.724 0.418 1.344 0.777 1.861 1.079 0.523 0.305 1.113 0.63 1.771 0.976v0c0.46 0.242 0.832 0.43 1.117 0.565 0.285 0.135 0.582 0.276 0.891 0.424 0.314 0.15 0.718 0.337 1.21 0.558v0c0.204 0.107 0.305 0.275 0.303 0.505-0.004 0.22-0.047 0.406-0.126 0.557v0c-0.231 0.369-0.437 0.528-0.618 0.477-0.184-0.045-0.378-0.121-0.582-0.228v0c-0.838-0.44-1.583-0.639-2.237-0.597-0.657 0.048-1.395 0.421-2.215 1.119v0c0 0-0.308 0.261-0.924 0.784-0.613 0.517-1.415 1.194-2.405 2.032-0.99 0.838-2.037 1.721-3.142 2.649-1.104 0.927-2.151 1.81-3.141 2.648-0.99 0.838-1.805 1.527-2.445 2.067-0.64 0.54-0.986 0.83-1.037 0.869v0c-0.745 0.611-1.596 1.255-2.553 1.933-0.952 0.68-1.95 1.258-2.995 1.734-1.042 0.47-2.091 0.757-3.148 0.862-1.067 0.108-2.08-0.091-3.04-0.596z" fill="black"></path><path d="M226.934 70.776v0c-1.095-1.363-1.583-2.767-1.463-4.213 0.129-1.445 0.742-2.607 1.839-3.488v0c1.137-0.914 2.27-1.335 3.399-1.264 1.119 0.07 2.226 0.467 3.32 1.189 1.095 0.722 2.16 1.612 3.195 2.669 1.039 1.062 2.032 2.115 2.98 3.158v0l2.644-2.124c1.05-0.844 1.661-1.769 1.831-2.774 0.174-1-0.241-2.125-1.245-3.376v0c-0.506-0.63-1.18-1.054-2.022-1.272-0.84-0.227-1.642-0.034-2.405 0.58v0c-0.359 0.288-0.586 0.619-0.683 0.991-0.102 0.377-0.152 0.708-0.15 0.994 0.011 0.286-0.007 0.448-0.053 0.485v0c-0.087 0.07-0.351 0.072-0.793 0.005-0.442-0.067-0.841-0.323-1.2-0.769v0c-0.556-0.692-0.729-1.438-0.521-2.238 0.208-0.791 0.624-1.437 1.25-1.94v0c0.851-0.683 1.734-0.959 2.649-0.826 0.912 0.127 1.811 0.518 2.699 1.17 0.888 0.644 1.674 1.391 2.358 2.242v0c0.807 1.004 1.468 2.079 1.984 3.224 0.52 1.151 0.681 2.311 0.483 3.482-0.198 1.171-0.991 2.314-2.379 3.43v0l-7.809 6.274c-0.209 0.202-0.435 0.472-0.677 0.81-0.238 0.343-0.37 0.736-0.395 1.178-0.03 0.446 0.134 0.891 0.493 1.337v0c0.128 0.159 0.198 0.304 0.212 0.436 0.018 0.138-0.096 0.305-0.342 0.503v0c-0.2 0.161-0.447 0.173-0.741 0.039-0.29-0.13-0.575-0.322-0.856-0.577-0.276-0.259-0.494-0.489-0.654-0.689v0c-0.663-0.825-1.017-1.754-1.064-2.788-0.037-1.033 0.324-1.947 1.084-2.743v0c-1.292 0.229-2.557 0.039-3.795-0.567-1.238-0.607-2.296-1.456-3.173-2.548zM229.599 70.393v0c0.613 0.763 1.365 1.31 2.254 1.641 0.89 0.331 1.821 0.425 2.796 0.284 0.978-0.137 1.869-0.528 2.673-1.175v0l1.906-1.531c-2.002-2.177-3.691-3.523-5.065-4.038-1.369-0.518-2.713-0.249-4.029 0.81v0c-1.522 1.223-1.7 2.559-0.535 4.009z" fill="black"></path><path d="M248.718 110.053v0c-0.242-0.737-0.207-1.43 0.105-2.079 0.314-0.643 0.852-1.09 1.614-1.34v0c0.712-0.234 1.391-0.188 2.038 0.139 0.655 0.331 1.108 0.877 1.359 1.639v0c0.242 0.737 0.2 1.439-0.127 2.108-0.323 0.66-0.84 1.107-1.552 1.34v0c-0.762 0.251-1.462 0.204-2.1-0.139-0.641-0.35-1.087-0.905-1.337-1.668z" fill="black"></path><path d="M12.336 190.105v0c-0.771-2.286-1.007-4.329-0.706-6.13 0.301-1.801 1.22-2.961 2.759-3.481v0c0.859-0.29 1.644-0.267 2.354 0.069 0.712 0.342 1.208 0.928 1.488 1.756v0c0.181 0.536 0.188 1.019 0.021 1.45-0.171 0.439-0.315 0.679-0.434 0.719v0c-0.087 0.029-0.344-0.075-0.771-0.312-0.425-0.231-0.977-0.232-1.656-0.003v0c-0.835 0.282-1.393 0.907-1.677 1.877-0.283 0.97-0.155 2.255 0.386 3.855v0c0.471 1.395 1.144 2.382 2.019 2.961 0.869 0.581 1.851 0.686 2.948 0.316v0c0.891-0.301 1.484-0.824 1.78-1.569 0.292-0.737 0.435-1.61 0.427-2.621-0.006-1.004-0.035-2.066-0.087-3.186-0.046-1.122-0.003-2.219 0.128-3.289 0.137-1.073 0.502-2.028 1.093-2.867 0.589-0.844 1.538-1.487 2.845-1.928v0c1.333-0.45 2.563-0.421 3.692 0.086 1.131 0.513 2.121 1.32 2.971 2.42 0.85 1.1 1.491 2.289 1.922 3.566v0c0.37 1.096 0.564 2.186 0.583 3.269 0.019 1.083-0.176 2.047-0.585 2.892-0.406 0.852-1.083 1.437-2.029 1.757v0c-0.741 0.25-1.487 0.238-2.239-0.035-0.76-0.278-1.279-0.831-1.559-1.659v0c-0.181-0.536-0.185-1.02-0.012-1.453 0.165-0.437 0.306-0.676 0.425-0.716v0c0.056-0.019 0.206 0.055 0.45 0.223 0.235 0.163 0.529 0.304 0.88 0.421 0.35 0.111 0.749 0.091 1.197-0.061v0c0.838-0.352 1.334-0.981 1.487-1.886 0.157-0.913 0.074-1.846-0.248-2.799v0c-0.349-1.034-0.926-1.911-1.731-2.631-0.805-0.72-1.681-0.921-2.627-0.601v0c-0.859 0.29-1.463 0.702-1.81 1.235-0.356 0.529-0.564 1.259-0.625 2.188-0.067 0.931-0.09 2.118-0.067 3.561v0c0.024 1.449-0.018 2.743-0.126 3.882-0.106 1.146-0.431 2.115-0.974 2.91-0.544 0.794-1.438 1.401-2.684 1.821v0c-1.246 0.42-2.477 0.441-3.694 0.061-1.217-0.38-2.308-1.094-3.273-2.142-0.964-1.048-1.711-2.357-2.241-3.926z" fill="black"></path><path d="M37.705 233.614v0c-1.273-1.418-1.884-2.92-1.831-4.504 0.048-1.58 0.644-2.884 1.789-3.911v0c1.184-1.063 2.389-1.589 3.617-1.579 1.233 0.006 2.466 0.37 3.698 1.093 1.241 0.723 2.458 1.631 3.651 2.724 1.188 1.097 2.331 2.183 3.427 3.256v0l2.759-2.476c1.096-0.984 1.706-2.026 1.83-3.127 0.129-1.096-0.393-2.297-1.566-3.603v0c-0.584-0.65-1.343-1.073-2.277-1.268-0.929-0.199-1.79 0.057-2.583 0.769v0c-0.372 0.334-0.604 0.71-0.696 1.128-0.087 0.414-0.119 0.778-0.094 1.091 0.034 0.314 0.027 0.492-0.022 0.536v0c-0.093 0.083-0.382 0.1-0.868 0.051-0.486-0.049-0.938-0.306-1.355-0.771v0c-0.65-0.724-0.884-1.525-0.701-2.404 0.177-0.875 0.591-1.604 1.242-2.188v0c0.885-0.795 1.831-1.149 2.836-1.063 1.005 0.087 2.012 0.455 3.019 1.106 1.003 0.654 1.901 1.424 2.696 2.309v0c0.944 1.052 1.732 2.185 2.365 3.402 0.628 1.221 0.87 2.474 0.727 3.76-0.149 1.291-0.944 2.584-2.388 3.879v0l-8.136 7.305c-0.213 0.235-0.441 0.546-0.685 0.933-0.239 0.383-0.361 0.818-0.364 1.307-0.003 0.489 0.204 0.965 0.621 1.43v0c0.145 0.161 0.23 0.315 0.255 0.46 0.025 0.146-0.092 0.335-0.352 0.568v0c-0.205 0.184-0.47 0.214-0.794 0.09-0.328-0.129-0.653-0.324-0.974-0.583-0.316-0.264-0.569-0.501-0.757-0.711v0c-0.773-0.861-1.213-1.853-1.32-2.976-0.102-1.127 0.237-2.147 1.016-3.059v0c-1.391 0.33-2.783 0.202-4.175-0.385-1.383-0.586-2.587-1.449-3.61-2.589zM40.592 233.036v0c0.711 0.792 1.564 1.343 2.557 1.653 0.993 0.309 2.015 0.36 3.064 0.151 1.054-0.213 1.999-0.695 2.836-1.446v0l1.995-1.792c-2.318-2.247-4.239-3.614-5.762-4.101-1.524-0.478-2.973-0.1-4.348 1.134v0c-1.585 1.423-1.699 2.89-0.342 4.401z" fill="black"></path><path d="M77.462 264.564v0c-0.204-0.075-0.338-0.233-0.403-0.474-0.059-0.239-0.051-0.46 0.023-0.664v0c0.192-0.427 0.393-0.629 0.602-0.608 0.207 0.027 0.44 0.088 0.7 0.184v0c0.827 0.304 1.445 0.374 1.855 0.21 0.411-0.164 0.724-0.473 0.94-0.925 0.218-0.459 0.418-0.935 0.599-1.429v0l3.716-10.094c0.195-0.53 0.354-1.029 0.477-1.495 0.125-0.472 0.09-0.902-0.104-1.288-0.185-0.39-0.691-0.738-1.518-1.043v0c-0.265-0.098-0.492-0.223-0.68-0.376-0.197-0.15-0.214-0.446-0.051-0.891v0c0.161-0.438 0.493-0.617 0.996-0.537v0c1.426 0.294 2.537 0.472 3.334 0.534 0.793 0.054 1.4 0.078 1.822 0.072 0.418-0.014 0.781 0.018 1.089 0.096v0c0.246 0.055 0.427 0.171 0.545 0.348 0.123 0.178 0.12 0.444-0.009 0.795v0l-1.022 2.776 0.129 0.047c0.79-0.339 1.56-0.662 2.31-0.967 0.746-0.314 1.578-0.491 2.497-0.531 0.914-0.049 1.988 0.154 3.222 0.609v0c1.437 0.529 2.561 1.282 3.37 2.259 0.808 0.984 1.252 2.089 1.333 3.317v0l0.092 0.034c0.79-0.339 1.604-0.646 2.44-0.92 0.832-0.282 1.751-0.427 2.755-0.435 1.007-0.015 2.127 0.205 3.361 0.659v0c1.998 0.736 3.362 1.921 4.091 3.555 0.735 1.636 0.741 3.439 0.017 5.406v0l-3.457 9.391c-0.182 0.493-0.338 0.986-0.47 1.477-0.129 0.485-0.091 0.923 0.115 1.314 0.206 0.391 0.72 0.738 1.54 1.039v0c0.265 0.098 0.486 0.203 0.661 0.317 0.173 0.12 0.194 0.404 0.064 0.854v0c-0.075 0.204-0.206 0.379-0.394 0.527-0.188 0.148-0.399 0.179-0.633 0.093v0c-0.831-0.369-1.604-0.695-2.318-0.98-0.717-0.278-1.47-0.562-2.26-0.853v0c-0.796-0.293-1.547-0.563-2.255-0.809-0.71-0.24-1.504-0.491-2.382-0.751v0c-0.234-0.086-0.375-0.247-0.422-0.481-0.047-0.234-0.033-0.453 0.042-0.656v0c0.192-0.427 0.393-0.629 0.603-0.609 0.207 0.027 0.443 0.09 0.708 0.188v0c0.82 0.302 1.436 0.371 1.847 0.206 0.411-0.164 0.724-0.473 0.939-0.925 0.218-0.459 0.418-0.935 0.6-1.429v0l3.439-9.345c0.356-0.968 0.435-1.839 0.237-2.612-0.199-0.773-0.564-1.426-1.096-1.959-0.541-0.528-1.151-0.917-1.829-1.167v0c-0.999-0.368-1.917-0.499-2.755-0.394-0.839 0.111-1.552 0.325-2.138 0.642-0.586 0.317-1.03 0.619-1.332 0.907v0l-3.862 10.492c-0.182 0.493-0.354 0.98-0.516 1.459-0.154 0.476-0.143 0.903 0.032 1.283 0.175 0.38 0.673 0.721 1.493 1.023v0c0.296 0.109 0.526 0.218 0.689 0.327 0.155 0.113 0.167 0.394 0.036 0.843v0c-0.075 0.204-0.206 0.379-0.394 0.528-0.188 0.148-0.399 0.179-0.633 0.092v0c-0.831-0.369-1.582-0.687-2.253-0.955-0.668-0.26-1.4-0.536-2.196-0.83v0c-0.765-0.282-1.48-0.538-2.144-0.768-0.667-0.224-1.436-0.466-2.307-0.723v0c-0.234-0.086-0.375-0.247-0.422-0.481-0.047-0.234-0.033-0.453 0.042-0.657v0c0.186-0.429 0.377-0.635 0.574-0.619 0.195 0.023 0.437 0.087 0.727 0.194v0c0.827 0.304 1.43 0.369 1.81 0.194 0.38-0.175 0.662-0.495 0.847-0.96 0.193-0.468 0.381-0.949 0.562-1.442v0l3.44-9.345c0.54-1.468 0.491-2.694-0.148-3.679-0.639-0.985-1.474-1.667-2.503-2.046v0c-1.024-0.377-1.954-0.513-2.792-0.408-0.846 0.109-1.558 0.323-2.138 0.642-0.586 0.317-1.033 0.618-1.341 0.904v0l-3.862 10.492c-0.182 0.493-0.338 0.986-0.47 1.476-0.123 0.487-0.082 0.926 0.124 1.317 0.206 0.391 0.72 0.738 1.54 1.04v0c0.265 0.098 0.486 0.203 0.661 0.317 0.173 0.12 0.191 0.403 0.055 0.85v0c-0.075 0.204-0.206 0.379-0.394 0.527-0.188 0.148-0.399 0.179-0.633 0.093v0c-0.831-0.369-1.601-0.694-2.309-0.976-0.717-0.278-1.474-0.563-2.27-0.856v0c-0.79-0.291-1.541-0.56-2.255-0.809-0.71-0.24-1.501-0.489-2.372-0.748z" fill="black"></path><path d="M149.393 279.997v0c-0.216 0.02-0.402-0.064-0.558-0.254-0.163-0.189-0.255-0.392-0.276-0.608v0c0.021-0.471 0.121-0.741 0.3-0.811 0.185-0.064 0.432-0.11 0.739-0.139v0c0.877-0.083 1.455-0.286 1.735-0.61 0.286-0.324 0.429-0.737 0.427-1.239-0.002-0.508-0.028-1.024-0.077-1.547v0l-1.014-10.709c-0.053-0.563-0.125-1.081-0.216-1.554-0.092-0.48-0.308-0.852-0.651-1.117-0.336-0.272-0.942-0.366-1.819-0.283v0c-0.275 0.026-0.534 0.011-0.777-0.045-0.242-0.05-0.386-0.31-0.43-0.782v0c-0.044-0.465 0.178-0.77 0.666-0.914v0c1.413-0.352 2.491-0.672 3.237-0.96 0.745-0.295 1.313-0.537 1.704-0.726 0.384-0.195 0.732-0.323 1.042-0.386v0c0.246-0.056 0.459-0.03 0.642 0.078 0.188 0.108 0.3 0.348 0.335 0.721v0l1.541 16.274c0.05 0.523 0.121 1.035 0.215 1.534 0.093 0.493 0.317 0.871 0.672 1.135 0.355 0.263 0.968 0.354 1.838 0.272v0c0.281-0.027 0.526-0.027 0.732-0.001 0.208 0.033 0.35 0.28 0.427 0.742v0c0.02 0.216-0.022 0.431-0.127 0.646-0.105 0.215-0.282 0.334-0.531 0.357v0c-0.915 0.027-1.753 0.067-2.514 0.12-0.767 0.059-1.569 0.129-2.406 0.208v0c-0.844 0.08-1.639 0.162-2.384 0.245-0.751 0.091-1.575 0.208-2.472 0.353zM151.442 252.262v0c-0.877 0.083-1.635-0.119-2.276-0.607-0.647-0.487-1.009-1.136-1.085-1.947v0c-0.068-0.72 0.231-1.392 0.898-2.016 0.66-0.63 1.445-0.988 2.354-1.075v0c0.779-0.074 1.442 0.137 1.992 0.634 0.549 0.503 0.864 1.173 0.942 2.01v0c0.071 0.753-0.163 1.422-0.701 2.007-0.546 0.58-1.254 0.911-2.124 0.994z" fill="black"></path><path d="M200.04 277.03v0c-0.801 0.425-1.648 0.645-2.542 0.658-0.899 0.016-1.712-0.162-2.439-0.536-0.736-0.376-1.287-0.909-1.653-1.6v0c-0.366-0.758-0.51-1.415-0.433-1.97 0.077-0.555 0.256-1.003 0.536-1.345 0.277-0.348 0.534-0.6 0.771-0.755 0.234-0.162 0.322-0.227 0.264-0.196v0c0.528-0.281 0.984-0.389 1.368-0.325 0.387 0.055 0.617 0.152 0.691 0.292v0c0.031 0.058-0.004 0.244-0.105 0.558-0.098 0.32-0.018 0.75 0.239 1.291v0c0.233 0.509 0.64 0.91 1.22 1.205 0.581 0.294 1.216 0.258 1.908-0.109v0c0.772-0.41 1.328-1.066 1.667-1.968 0.336-0.908 0.531-1.908 0.583-3.001 0.058-1.095 0.062-2.124 0.012-3.087v0c-0.132-0.711-0.484-1.339-1.056-1.884v0c-1.454-1.14-2.949-2.386-4.485-3.736-1.527-1.347-3.009-2.652-4.445-3.913-1.428-1.259-2.748-2.329-3.96-3.21v0c-0.984-0.787-1.799-1.285-2.445-1.493-0.64-0.211-1.405-0.151-2.293 0.18v0c-0.388 0.139-0.658 0.212-0.811 0.219-0.155 0.016-0.34-0.15-0.555-0.498v0c-0.279-0.455-0.284-0.78-0.015-0.975 0.269-0.195 0.601-0.416 0.998-0.664v0c1.675-0.994 3.149-1.456 4.421-1.388 1.278 0.066 2.588 0.627 3.931 1.686v0c0.836 0.65 1.827 1.486 2.973 2.507 1.145 1.022 2.328 2.042 3.546 3.061 1.213 1.023 2.348 1.927 3.406 2.713v0l0.122-0.065-1.706-13.026c-0.153-0.946-0.405-1.448-0.756-1.508-0.346-0.062-0.933 0.127-1.763 0.568v0c-0.25 0.133-0.471 0.22-0.664 0.264-0.184 0.046-0.4-0.13-0.648-0.527v0c-0.089-0.168-0.136-0.374-0.139-0.618-0.009-0.241 0.085-0.414 0.283-0.519v0c0.813-0.402 1.518-0.743 2.114-1.022 0.596-0.279 1.254-0.61 1.973-0.993v0c0.493-0.262 0.891-0.481 1.193-0.655 0.293-0.178 0.601-0.36 0.926-0.548 0.322-0.193 0.74-0.442 1.256-0.745v0c0.221-0.117 0.431-0.106 0.632 0.033 0.195 0.142 0.337 0.298 0.426 0.466v0c0.19 0.428 0.206 0.709 0.047 0.845-0.149 0.139-0.337 0.269-0.564 0.389v0c-0.911 0.484-1.549 1.035-1.913 1.653-0.358 0.615-0.474 1.51-0.349 2.685v0c0 0 0.044 0.434 0.134 1.303 0.092 0.874 0.211 2.016 0.358 3.427 0.146 1.411 0.301 2.899 0.462 4.465 0.153 1.563 0.303 3.051 0.45 4.461 0.146 1.411 0.268 2.571 0.363 3.48 0.087 0.906 0.134 1.395 0.142 1.465v0c0.093 1.044 0.153 2.207 0.179 3.489 0.026 1.281-0.07 2.538-0.287 3.769-0.217 1.231-0.602 2.355-1.156 3.372-0.557 1.025-1.361 1.817-2.412 2.375z" fill="black"></path><path d="M243.859 231.764v0c-1.192 1.488-2.573 2.335-4.145 2.541-1.567 0.211-2.95-0.165-4.151-1.126v0c-1.241-0.994-1.957-2.098-2.147-3.312-0.195-1.218-0.037-2.493 0.475-3.826 0.511-1.342 1.208-2.691 2.092-4.047 0.889-1.351 1.773-2.656 2.653-3.912v0l-2.893-2.318c-1.149-0.92-2.277-1.352-3.384-1.295-1.103 0.052-2.202 0.762-3.299 2.132v0c-0.546 0.682-0.84 1.5-0.879 2.454-0.045 0.95 0.349 1.757 1.179 2.423v0c0.39 0.312 0.799 0.48 1.227 0.502 0.423 0.019 0.787-0.01 1.092-0.085 0.304-0.085 0.481-0.107 0.533-0.066v0c0.097 0.078 0.161 0.361 0.192 0.848 0.031 0.488-0.149 0.975-0.54 1.463v0c-0.608 0.759-1.361 1.121-2.258 1.084-0.892-0.032-1.679-0.322-2.361-0.868v0c-0.929-0.744-1.432-1.619-1.511-2.625-0.078-1.006 0.121-2.059 0.598-3.159 0.482-1.096 1.095-2.108 1.838-3.037v0c0.883-1.103 1.874-2.066 2.971-2.888 1.102-0.819 2.299-1.262 3.591-1.33 1.298-0.064 2.703 0.51 4.217 1.722v0l8.534 6.836c0.267 0.172 0.611 0.346 1.033 0.524 0.417 0.174 0.866 0.222 1.348 0.145 0.482-0.077 0.919-0.359 1.31-0.846v0c0.136-0.169 0.273-0.278 0.413-0.326 0.14-0.048 0.345 0.037 0.617 0.254v0c0.215 0.173 0.288 0.429 0.218 0.769-0.074 0.345-0.213 0.697-0.416 1.056-0.209 0.355-0.401 0.643-0.578 0.863v0c-0.723 0.903-1.63 1.499-2.721 1.788-1.095 0.285-2.157 0.117-3.183-0.504v0c0.553 1.318 0.653 2.712 0.3 4.182-0.353 1.461-1.008 2.788-1.965 3.984zM242.818 229.01v0c0.666-0.831 1.07-1.762 1.213-2.792 0.143-1.031 0.026-2.046-0.35-3.048-0.382-1.005-1.012-1.859-1.89-2.561v0l-2.093-1.677c-1.839 2.653-2.874 4.772-3.106 6.355-0.223 1.582 0.387 2.95 1.828 4.104v0c1.662 1.331 3.128 1.204 4.398-0.381z" fill="black"></path><path d="M269.23 186.239v0c-0.269 0.804-0.751 1.384-1.446 1.741-0.703 0.361-1.469 0.402-2.298 0.124v0c-0.773-0.259-1.334-0.745-1.684-1.459-0.358-0.709-0.398-1.482-0.118-2.316v0c0.267-0.798 0.761-1.381 1.48-1.75 0.714-0.371 1.457-0.427 2.23-0.168v0c0.829 0.278 1.413 0.779 1.753 1.502 0.334 0.722 0.361 1.497 0.083 2.326z" fill="black"></path><path d="M4.257 144.47c0-6.359 5.155-11.513 11.513-11.513 6.359 0 11.513 5.155 11.514 11.513 0 6.359-5.155 11.513-11.514 11.513-6.359 0-11.513-5.155-11.513-11.513z" fill="black"></path><path d="M252.716 144.47c0-6.359 5.155-11.513 11.514-11.513 6.359 0 11.513 5.155 11.513 11.513 0 6.359-5.155 11.513-11.513 11.513-6.359 0-11.513-5.155-11.514-11.513z" fill="black"></path></g><g id="SvgjsG2401"></g></svg></g></svg></g></svg></g><g></g></svg></g><defs><mask></mask></defs></svg><rect width="280" height="280" fill="black" stroke="none" visibility="hidden"></rect></g></mask></svg><rect width="280" height="280" fill="black" stroke="none" visibility="hidden"></rect></g></mask><linearGradient x1="0" x2="1" y1="0.5" y2="0.5" id="b540592f-a8d8-4fdd-a44c-199a47d666e1"><stop stop-color="#f00b51" offset="0"></stop><stop stop-color="#730062" offset="1"></stop></linearGradient><rect width="280" height="280" fill="url(#b540592f-a8d8-4fdd-a44c-199a47d666e1)" mask="url(#58a02326-4174-40c2-8078-e0e26feab00f)" data-fill-palette-color="accent"></rect></svg><rect width="280" height="280" fill="none" stroke="none" visibility="hidden"></rect></g></svg></g></svg>